# xmcd CD database file generated by Grip 3.3.1
# 
# Track frame offsets:
#       150
#       31907
#       97189
#       123429
#       159715
#       166009
#       196377
#       234396
#       261767
# 
# Disc length: 4041 seconds
# 
# Revision: 1
# Processed by: cddbd v1.5.1PL2 Copyright (c) Steve Scherf et al.
# Submitted via: Grip 3.3.1
# 
DISCID=700fc709
DTITLE=Steve Reid Ensemble - Spirit Walk
DYEAR=2005
DGENRE=Jazz
TTITLE0=Lugano
TTITLE1=Drum Story
TTITLE2=Bridget
TTITLE3=For Coltrane
TTITLE4=Blind Tom
TTITLE5=Which One?
TTITLE6=Lions Of Juda
TTITLE7=It Cannot Be True
TTITLE8=Unity
EXTD=
EXTT0=
EXTT1=
EXTT2=
EXTT3=
EXTT4=
EXTT5=
EXTT6=
EXTT7=
EXTT8=
PLAYORDER=
